<?xml version="1.0" encoding="utf-8"?>
<svg version="1.1" xmlns:xlink="http://www.w3.org/1999/xlink" width="22px" height="17px" xmlns="http://www.w3.org/2000/svg">
  <g transform="matrix(1 0 0 1 -1205 -1110 )">
    <path d="M 1.57142857142856 8.5  C 2.93824404761904 10.6755952380952  4.68563988095241 12.2566964285714  6.81361607142856 13.2433035714286  L 7.77120535714289 11.4598214285714  C 7.05915178571433 10.9285714285714  6.50260416666663 10.2581845238095  6.1015625 9.44866071428572  C 5.70052083333337 8.63913690476193  5.5 7.7832341269841  5.5 6.88095238095241  C 5.5 5.86061507936506  5.74962797619048 4.91195436507934  6.24888392857144 4.03497023809524  C 4.37462797619048 5.02157738095241  2.81547619047615 6.50992063492066  1.57142857142856 8.5  Z M 11.4174107142857 4.07291666666669  C 11.531994047619 3.95486111111109  11.5892857142857 3.81150793650795  11.5892857142857 3.64285714285717  C 11.5892857142857 3.47420634920633  11.531994047619 3.33085317460319  11.4174107142857 3.21279761904759  C 11.3028273809524 3.09474206349205  11.1636904761905 3.03571428571428  11 3.03571428571428  C 9.97693452380952 3.03571428571428  9.09914434523807 3.41307043650795  8.36662946428567 4.16778273809524  C 7.63411458333337 4.92249503968253  7.26785714285711 5.82688492063494  7.26785714285711 6.88095238095241  C 7.26785714285711 7.04960317460319  7.32514880952385 7.19295634920633  7.43973214285711 7.31101190476193  C 7.55431547619048 7.42906746031747  7.69345238095241 7.48809523809524  7.85714285714289 7.48809523809524  C 8.02083333333337 7.48809523809524  8.15997023809518 7.42906746031747  8.27455357142856 7.31101190476193  C 8.38913690476193 7.19295634920633  8.44642857142856 7.04960317460319  8.44642857142856 6.88095238095241  C 8.44642857142856 6.15575396825398  8.69605654761904 5.53596230158729  9.1953125 5.02157738095241  C 9.69456845238096 4.50719246031747  10.296130952381 4.25  11 4.25  C 11.1636904761905 4.25  11.3028273809524 4.19097222222223  11.4174107142857 4.07291666666669  Z M 15.8493303571429 0.885416666666686  C 15.9802827380952 0.969742063492049  16.0457589285714 1.08358134920633  16.0457589285714 1.22693452380952  C 16.0457589285714 1.28596230158729  16.0416666666666 1.32390873015873  16.0334821428571 1.3407738095238  C 15.1659226190476 2.9345238095238  13.8727678571429 5.3251488095238  12.1540178571429 8.5126488095238  C 10.4352678571429 11.7001488095238  9.14620535714289 14.0865575396825  8.28683035714289 15.671875  L 7.68526785714289 16.797619047619  C 7.60342261904759 16.9325396825397  7.48883928571433 17  7.34151785714289 17  C 7.24330357142856 17  6.69494047619048 16.7048611111111  5.69642857142856 16.1145833333333  C 5.56547619047615 16.030257936508  5.5 15.9122023809524  5.5 15.7604166666667  C 5.5 15.6592261904762  5.68005952380952 15.2924107142857  6.04017857142856 14.6599702380952  C 4.86979166666663 14.1118551587302  3.79148065476193 13.3824404761905  2.80524553571433 12.4717261904762  C 1.81901041666663 11.5610119047619  0.965773809523853 10.5280257936508  0.245535714285666 9.37276785714283  C 0.081845238095184 9.1113591269841  0 8.82043650793651  0 8.5  C 0 8.17956349206349  0.081845238095184 7.88864087301585  0.245535714285666 7.62723214285717  C 1.49776785714289 5.6455853174603  3.05282738095241 4.08134920634922  4.91071428571433 2.9345238095238  C 6.76860119047615 1.78769841269843  8.79836309523807 1.21428571428572  11 1.21428571428572  C 11.7284226190476 1.21428571428572  12.4650297619048 1.28596230158729  13.2098214285714 1.42931547619048  L 13.8727678571429 0.202380952380963  C 13.9546130952381 0.0674603174603021  14.0691964285714 0  14.2165178571429 0  C 14.2574404761905 0  14.3311011904761 0.025297619047592  14.4375 0.0758928571428328  C 14.5438988095239 0.126488095238074  14.6707589285714 0.191840277777771  14.8180803571429 0.271949404761926  C 14.9654017857143 0.352058531746025  15.1004464285714 0.430059523809518  15.2232142857143 0.505952380952408  C 15.3459821428571 0.581845238095241  15.4748883928571 0.659846230158735  15.6099330357143 0.739955357142833  C 15.7449776785714 0.820064484126988  15.8247767857143 0.868551587301567  15.8493303571429 0.885416666666686  Z M 16.4017857142857 5.81845238095241  C 16.4672619047619 6.19791666666669  16.5 6.55208333333331  16.5 6.88095238095241  C 16.5 8.05307539682542  16.1767113095239 9.12189980158729  15.5301339285714 10.0874255952381  C 14.883556547619 11.0529513888889  14.0282738095239 11.7465277777778  12.9642857142857 12.1681547619048  L 16.4017857142857 5.81845238095241  Z M 21.7544642857143 7.62723214285717  C 21.9181547619048 7.91393849206349  22 8.20486111111109  22 8.5  C 22 8.79513888888891  21.9181547619048 9.08606150793651  21.7544642857143 9.37276785714283  C 21.4352678571429 9.91245039682542  20.9892113095239 10.5238095238095  20.4162946428571 11.2068452380952  C 19.1886160714286 12.657242063492  17.7665550595239 13.7829861111111  16.1501116071429 14.5840773809524  C 14.5336681547619 15.3851686507937  12.8169642857143 15.7857142857143  11 15.7857142857143  L 11.9084821428571 14.1160714285714  C 13.6436011904761 13.9642857142857  15.2498139880952 13.3866567460317  16.7271205357143 12.3831845238095  C 18.2044270833334 11.3797123015873  19.438244047619 10.0853174603175  20.4285714285714 8.5  C 19.4873511904761 6.99057539682542  18.3333333333334 5.75099206349205  16.9665178571429 4.78125  L 17.7399553571429 3.36458333333331  C 18.5174851190476 3.90426587301585  19.2643229166666 4.54935515873018  19.98046875 5.2998511904762  C 20.6966145833334 6.05034722222223  21.2879464285714 6.82614087301585  21.7544642857143 7.62723214285717  Z " fill-rule="nonzero" fill="#999999" stroke="none" transform="matrix(1 0 0 1 1205 1110 )" />
  </g>
</svg>